<svg width="108" height="108" viewBox="0 0 108 108" fill="none" xmlns="http://www.w3.org/2000/svg">
<g filter="url(#filter0_bdi_608_6934)">
<rect x="4" width="100" height="100" rx="20" fill="url(#paint0_radial_608_6934)" shape-rendering="crispEdges"/>
<g clip-path="url(#clip0_608_6934)">
<path d="M54 36.988L60.568 52H47.432L54 36.988Z" fill="#D0D0D9"/>
<g filter="url(#filter1_i_608_6934)">
<path fill-rule="evenodd" clip-rule="evenodd" d="M53.452 20.08C53.8102 19.9779 54.1898 19.9779 54.548 20.08L82.548 28.08C83.002 28.2094 83.3956 28.4952 83.6591 28.8868C83.9226 29.2785 84.0391 29.7507 83.988 30.22L79.988 66.22C79.9513 66.5517 79.8321 66.869 79.6414 67.1428C79.4506 67.4167 79.1944 67.6385 78.896 67.788L54.896 79.788C54.6179 79.9274 54.3111 79.9999 54 79.9999C53.6889 79.9999 53.3821 79.9274 53.104 79.788L29.104 67.788C28.8056 67.6385 28.5494 67.4167 28.3586 67.1428C28.1679 66.869 28.0487 66.5517 28.012 66.22L24.012 30.22C23.9599 29.7501 24.0759 29.2769 24.3395 28.8844C24.6032 28.4919 24.9973 28.2055 25.452 28.076L53.452 20.076V20.08ZM54 27.008L69.832 63.196L66.168 64.796L62.316 56H45.684L41.832 64.8L38.168 63.2L54 27.012V27.008Z" fill="#D0D0D9"/>
</g>
</g>
</g>
<defs>
<filter id="filter0_bdi_608_6934" x="-38" y="-42" width="184" height="184" filterUnits="userSpaceOnUse" color-interpolation-filters="sRGB">
<feFlood flood-opacity="0" result="BackgroundImageFix"/>
<feGaussianBlur in="BackgroundImageFix" stdDeviation="21"/>
<feComposite in2="SourceAlpha" operator="in" result="effect1_backgroundBlur_608_6934"/>
<feColorMatrix in="SourceAlpha" type="matrix" values="0 0 0 0 0 0 0 0 0 0 0 0 0 0 0 0 0 0 127 0" result="hardAlpha"/>
<feOffset dy="4"/>
<feGaussianBlur stdDeviation="2"/>
<feComposite in2="hardAlpha" operator="out"/>
<feColorMatrix type="matrix" values="0 0 0 0 0 0 0 0 0 0 0 0 0 0 0 0 0 0 0.25 0"/>
<feBlend mode="normal" in2="effect1_backgroundBlur_608_6934" result="effect2_dropShadow_608_6934"/>
<feBlend mode="normal" in="SourceGraphic" in2="effect2_dropShadow_608_6934" result="shape"/>
<feColorMatrix in="SourceAlpha" type="matrix" values="0 0 0 0 0 0 0 0 0 0 0 0 0 0 0 0 0 0 127 0" result="hardAlpha"/>
<feOffset dx="-5" dy="-5"/>
<feGaussianBlur stdDeviation="125"/>
<feComposite in2="hardAlpha" operator="arithmetic" k2="-1" k3="1"/>
<feColorMatrix type="matrix" values="0 0 0 0 1 0 0 0 0 1 0 0 0 0 1 0 0 0 0.02 0"/>
<feBlend mode="normal" in2="shape" result="effect3_innerShadow_608_6934"/>
</filter>
<filter id="filter1_i_608_6934" x="23.9998" y="20.0034" width="60" height="63.9965" filterUnits="userSpaceOnUse" color-interpolation-filters="sRGB">
<feFlood flood-opacity="0" result="BackgroundImageFix"/>
<feBlend mode="normal" in="SourceGraphic" in2="BackgroundImageFix" result="shape"/>
<feColorMatrix in="SourceAlpha" type="matrix" values="0 0 0 0 0 0 0 0 0 0 0 0 0 0 0 0 0 0 127 0" result="hardAlpha"/>
<feOffset dy="4"/>
<feGaussianBlur stdDeviation="2"/>
<feComposite in2="hardAlpha" operator="arithmetic" k2="-1" k3="1"/>
<feColorMatrix type="matrix" values="0 0 0 0 0 0 0 0 0 0 0 0 0 0 0 0 0 0 0.25 0"/>
<feBlend mode="normal" in2="shape" result="effect1_innerShadow_608_6934"/>
</filter>
<radialGradient id="paint0_radial_608_6934" cx="0" cy="0" r="1" gradientUnits="userSpaceOnUse" gradientTransform="translate(4) rotate(45) scale(141.421 98.2651)">
<stop stop-color="white" stop-opacity="0.4"/>
<stop offset="1" stop-color="white" stop-opacity="0"/>
</radialGradient>
<clipPath id="clip0_608_6934">
<rect width="60" height="60" fill="white" transform="translate(24 20)"/>
</clipPath>
</defs>
</svg>
