<svg width="108" height="108" viewBox="0 0 108 108" fill="none" xmlns="http://www.w3.org/2000/svg">
<g filter="url(#filter0_bdi_608_6906)">
<rect x="4" width="100" height="100" rx="20" fill="url(#paint0_radial_608_6906)" shape-rendering="crispEdges"/>
<g clip-path="url(#clip0_608_6906)">
<g filter="url(#filter1_i_608_6906)">
<path d="M54 50C54 36.6706 74.0006 36.6706 74.0006 50C74.0006 63.3294 54 63.3294 54 50ZM33.9994 70.0006C33.9986 68.6873 34.2568 67.3867 34.759 66.1732C35.2613 64.9596 35.9978 63.857 36.9265 62.9284C37.8551 61.9997 38.9578 61.2632 40.1713 60.7609C41.3848 60.2586 42.6854 60.0005 43.9987 60.0013H53.9981V70.0006C53.9981 83.33 33.9975 83.33 33.9975 70.0006H33.9994ZM54 20V40.0006H63.9994C77.3287 40.0006 77.3287 20 63.9994 20H54ZM33.9994 29.9994C33.9986 31.3127 34.2568 32.6133 34.759 33.8268C35.2613 35.0404 35.9978 36.143 36.9265 37.0716C37.8551 38.0003 38.9578 38.7368 40.1713 39.2391C41.3848 39.7414 42.6854 39.9995 43.9987 39.9987H53.9981V19.9981H43.9987C42.6854 19.9974 41.3848 20.2555 40.1713 20.7578C38.9578 21.26 37.8551 21.9965 36.9265 22.9252C35.9978 23.8539 35.2613 24.9565 34.759 26.17C34.2568 27.3835 33.9986 28.6842 33.9994 29.9975V29.9994ZM33.9994 50C33.9986 51.3133 34.2568 52.614 34.759 53.8275C35.2613 55.041 35.9978 56.1436 36.9265 57.0723C37.8551 58.0009 38.9578 58.7375 40.1713 59.2397C41.3848 59.742 42.6854 60.002 43.9987 60.0013H53.9981V39.9987H43.9987C42.6854 39.998 41.3848 40.2561 40.1713 40.7584C38.9578 41.2607 37.8551 41.9972 36.9265 42.9258C35.9978 43.8545 35.2613 44.9571 34.759 46.1707C34.2568 47.3842 33.9986 48.6848 33.9994 49.9981V50Z" fill="#D0D0D9"/>
</g>
</g>
</g>
<defs>
<filter id="filter0_bdi_608_6906" x="-38" y="-42" width="184" height="184" filterUnits="userSpaceOnUse" color-interpolation-filters="sRGB">
<feFlood flood-opacity="0" result="BackgroundImageFix"/>
<feGaussianBlur in="BackgroundImageFix" stdDeviation="21"/>
<feComposite in2="SourceAlpha" operator="in" result="effect1_backgroundBlur_608_6906"/>
<feColorMatrix in="SourceAlpha" type="matrix" values="0 0 0 0 0 0 0 0 0 0 0 0 0 0 0 0 0 0 127 0" result="hardAlpha"/>
<feOffset dy="4"/>
<feGaussianBlur stdDeviation="2"/>
<feComposite in2="hardAlpha" operator="out"/>
<feColorMatrix type="matrix" values="0 0 0 0 0 0 0 0 0 0 0 0 0 0 0 0 0 0 0.25 0"/>
<feBlend mode="normal" in2="effect1_backgroundBlur_608_6906" result="effect2_dropShadow_608_6906"/>
<feBlend mode="normal" in="SourceGraphic" in2="effect2_dropShadow_608_6906" result="shape"/>
<feColorMatrix in="SourceAlpha" type="matrix" values="0 0 0 0 0 0 0 0 0 0 0 0 0 0 0 0 0 0 127 0" result="hardAlpha"/>
<feOffset dx="-5" dy="-5"/>
<feGaussianBlur stdDeviation="125"/>
<feComposite in2="hardAlpha" operator="arithmetic" k2="-1" k3="1"/>
<feColorMatrix type="matrix" values="0 0 0 0 1 0 0 0 0 1 0 0 0 0 1 0 0 0 0.02 0"/>
<feBlend mode="normal" in2="shape" result="effect3_innerShadow_608_6906"/>
</filter>
<filter id="filter1_i_608_6906" x="33.9975" y="19.9981" width="40.0031" height="63.9995" filterUnits="userSpaceOnUse" color-interpolation-filters="sRGB">
<feFlood flood-opacity="0" result="BackgroundImageFix"/>
<feBlend mode="normal" in="SourceGraphic" in2="BackgroundImageFix" result="shape"/>
<feColorMatrix in="SourceAlpha" type="matrix" values="0 0 0 0 0 0 0 0 0 0 0 0 0 0 0 0 0 0 127 0" result="hardAlpha"/>
<feOffset dy="4"/>
<feGaussianBlur stdDeviation="2"/>
<feComposite in2="hardAlpha" operator="arithmetic" k2="-1" k3="1"/>
<feColorMatrix type="matrix" values="0 0 0 0 0 0 0 0 0 0 0 0 0 0 0 0 0 0 0.25 0"/>
<feBlend mode="normal" in2="shape" result="effect1_innerShadow_608_6906"/>
</filter>
<radialGradient id="paint0_radial_608_6906" cx="0" cy="0" r="1" gradientUnits="userSpaceOnUse" gradientTransform="translate(4) rotate(45) scale(141.421 98.2651)">
<stop stop-color="white" stop-opacity="0.4"/>
<stop offset="1" stop-color="white" stop-opacity="0"/>
</radialGradient>
<clipPath id="clip0_608_6906">
<rect width="60" height="60" fill="white" transform="translate(24 20)"/>
</clipPath>
</defs>
</svg>
