<svg width="108" height="108" viewBox="0 0 108 108" fill="none" xmlns="http://www.w3.org/2000/svg">
<g filter="url(#filter0_bdi_608_6919)">
<rect x="4" width="100" height="100" rx="20" fill="url(#paint0_radial_608_6919)" shape-rendering="crispEdges"/>
<g clip-path="url(#clip0_608_6919)">
<g filter="url(#filter1_i_608_6919)">
<path d="M52.9275 51.2175H24C24.001 49.5021 24.3403 47.8037 24.9985 46.2196C25.6567 44.6355 26.6209 43.1968 27.8358 41.9857C29.0508 40.7747 30.4926 39.8153 32.0789 39.1622C33.6651 38.5092 35.3646 38.1754 37.08 38.18H42.405V33.0375C42.405 29.5806 43.7779 26.2652 46.2218 23.8204C48.6657 21.3755 51.9806 20.0013 55.4375 20V48.705C55.4375 49.3714 55.1728 50.0104 54.7016 50.4816C54.2304 50.9528 53.5914 51.2175 52.925 51.2175H52.9275ZM67.235 65.6075H38.34C38.3407 62.1502 39.7145 58.8347 42.1595 56.3902C44.6044 53.9457 47.9202 52.5725 51.3775 52.5725H56.7V47.4275C56.7026 43.9708 58.0772 40.6564 60.5217 38.2124C62.9662 35.7684 66.2808 34.3945 69.7375 34.3925V63.105C69.7375 63.7687 69.4738 64.4052 69.0045 64.8745C68.5352 65.3438 67.8987 65.6075 67.235 65.6075ZM81.5325 80H52.6375C52.6375 76.5422 54.0111 73.2261 56.4561 70.7811C58.9011 68.3361 62.2172 66.9625 65.675 66.9625H70.9975V61.82C71.0001 58.37 72.3701 55.0617 74.8072 52.6199C77.2444 50.1781 80.55 48.8018 84 48.7925V77.4875C84.0027 78.1469 83.745 78.7807 83.283 79.2512C82.8209 79.7217 82.1919 79.9908 81.5325 80Z" fill="#D0D0D9"/>
</g>
</g>
</g>
<defs>
<filter id="filter0_bdi_608_6919" x="-38" y="-42" width="184" height="184" filterUnits="userSpaceOnUse" color-interpolation-filters="sRGB">
<feFlood flood-opacity="0" result="BackgroundImageFix"/>
<feGaussianBlur in="BackgroundImageFix" stdDeviation="21"/>
<feComposite in2="SourceAlpha" operator="in" result="effect1_backgroundBlur_608_6919"/>
<feColorMatrix in="SourceAlpha" type="matrix" values="0 0 0 0 0 0 0 0 0 0 0 0 0 0 0 0 0 0 127 0" result="hardAlpha"/>
<feOffset dy="4"/>
<feGaussianBlur stdDeviation="2"/>
<feComposite in2="hardAlpha" operator="out"/>
<feColorMatrix type="matrix" values="0 0 0 0 0 0 0 0 0 0 0 0 0 0 0 0 0 0 0.25 0"/>
<feBlend mode="normal" in2="effect1_backgroundBlur_608_6919" result="effect2_dropShadow_608_6919"/>
<feBlend mode="normal" in="SourceGraphic" in2="effect2_dropShadow_608_6919" result="shape"/>
<feColorMatrix in="SourceAlpha" type="matrix" values="0 0 0 0 0 0 0 0 0 0 0 0 0 0 0 0 0 0 127 0" result="hardAlpha"/>
<feOffset dx="-5" dy="-5"/>
<feGaussianBlur stdDeviation="125"/>
<feComposite in2="hardAlpha" operator="arithmetic" k2="-1" k3="1"/>
<feColorMatrix type="matrix" values="0 0 0 0 1 0 0 0 0 1 0 0 0 0 1 0 0 0 0.02 0"/>
<feBlend mode="normal" in2="shape" result="effect3_innerShadow_608_6919"/>
</filter>
<filter id="filter1_i_608_6919" x="24" y="20" width="60" height="64" filterUnits="userSpaceOnUse" color-interpolation-filters="sRGB">
<feFlood flood-opacity="0" result="BackgroundImageFix"/>
<feBlend mode="normal" in="SourceGraphic" in2="BackgroundImageFix" result="shape"/>
<feColorMatrix in="SourceAlpha" type="matrix" values="0 0 0 0 0 0 0 0 0 0 0 0 0 0 0 0 0 0 127 0" result="hardAlpha"/>
<feOffset dy="4"/>
<feGaussianBlur stdDeviation="2"/>
<feComposite in2="hardAlpha" operator="arithmetic" k2="-1" k3="1"/>
<feColorMatrix type="matrix" values="0 0 0 0 0 0 0 0 0 0 0 0 0 0 0 0 0 0 0.25 0"/>
<feBlend mode="normal" in2="shape" result="effect1_innerShadow_608_6919"/>
</filter>
<radialGradient id="paint0_radial_608_6919" cx="0" cy="0" r="1" gradientUnits="userSpaceOnUse" gradientTransform="translate(4) rotate(45) scale(141.421 98.2651)">
<stop stop-color="white" stop-opacity="0.4"/>
<stop offset="1" stop-color="white" stop-opacity="0"/>
</radialGradient>
<clipPath id="clip0_608_6919">
<rect width="60" height="60" fill="white" transform="matrix(1 0 0 -1 24 80)"/>
</clipPath>
</defs>
</svg>
