<svg width="108" height="108" viewBox="0 0 108 108" fill="none" xmlns="http://www.w3.org/2000/svg">
<g filter="url(#filter0_bdi_608_6931)">
<rect x="4" width="100" height="100" rx="20" fill="url(#paint0_radial_608_6931)" shape-rendering="crispEdges"/>
<g clip-path="url(#clip0_608_6931)">
<g filter="url(#filter1_i_608_6931)">
<path d="M83.585 40.2525C82.2879 48.3833 78.1483 55.7902 71.9028 61.1554C65.6573 66.5206 57.7109 69.4961 49.4775 69.5525C47.81 69.6174 46.1402 69.5169 44.4925 69.2525C41.0468 68.6673 37.906 66.9183 35.5939 64.2973C33.2819 61.6763 31.9384 58.3418 31.7875 54.85C31.8024 50.9435 33.3575 47.2005 36.1153 44.4337C38.8731 41.6668 42.611 40.0995 46.5174 40.0718C50.4238 40.0442 54.1835 41.5585 56.9802 44.286C59.7769 47.0135 61.3849 50.7341 61.455 54.64C61.5175 57.0975 60.4525 59.255 58.2625 59.3175C55.9225 59.3175 54.8275 57.6475 54.8275 55.4V49.15C54.8289 48.1388 54.43 47.1681 53.718 46.45C53.006 45.7319 52.0387 45.3248 51.0275 45.3175H45.7875C44.2638 45.3075 42.7618 45.6794 41.4188 46.3994C40.0758 47.1193 38.9345 48.1643 38.0994 49.4388C37.2642 50.7133 36.7617 52.1768 36.6378 53.6956C36.5138 55.2143 36.7724 56.7399 37.3899 58.133C38.0074 59.5261 38.9641 60.7423 40.1727 61.6704C41.3812 62.5985 42.803 63.209 44.3082 63.4462C45.8135 63.6833 47.3541 63.5395 48.7895 63.0279C50.2248 62.5163 51.5091 61.6533 52.525 60.5175L52.7075 60.2425L52.8925 60.545C53.5225 61.4011 54.3542 62.0882 55.3137 62.5453C56.2732 63.0024 57.3309 63.2153 58.3925 63.165C60.2851 63.0276 62.049 62.1559 63.3077 60.736C64.5665 59.3161 65.2205 57.4604 65.13 55.565C65.1486 53.938 64.9664 52.3149 64.5875 50.7325C63.6186 46.2608 61.0278 42.3065 57.3151 39.6324C53.6024 36.9584 49.0309 35.7542 44.4826 36.2522C39.9344 36.7502 35.7317 38.9152 32.6856 42.3292C29.6395 45.7433 27.9658 50.1646 27.9875 54.74C28.0455 59.5901 29.9815 64.2289 33.3887 67.6812C36.7958 71.1335 41.4086 73.1306 46.2575 73.2525C46.2575 73.2525 47.63 73.3775 49.175 73.34C56.6951 73.2928 64.0455 71.1002 70.3625 67.02C70.4525 66.9575 70.5425 67.0825 70.4825 67.1725C67.4072 70.4851 63.6467 73.0876 59.463 74.7987C55.2793 76.5097 50.7728 77.2882 46.2575 77.08C43.3056 77.1337 40.3733 76.5888 37.6377 75.4783C34.9021 74.3678 32.4198 72.7147 30.3405 70.6186C28.2612 68.5225 26.6281 66.0269 25.5397 63.2824C24.4513 60.538 23.9301 57.6014 24.0075 54.65C24.009 51.1314 24.8311 47.6617 26.4087 44.5166C27.9862 41.3715 30.2757 38.6377 33.095 36.5325C36.8839 33.7427 41.4624 32.2314 46.1675 32.2175H53.2C55.9473 32.2154 58.664 31.6413 61.1772 30.5317C63.6905 29.4221 65.9451 27.8013 67.7975 25.7725C67.8365 25.7293 67.8881 25.6995 67.945 25.6875C68.0026 25.6752 68.0626 25.6815 68.1165 25.7052C68.1703 25.729 68.2153 25.7692 68.245 25.82C68.2746 25.8706 68.2877 25.9291 68.2825 25.9875C67.9847 29.1479 66.9328 32.1906 65.215 34.86C65.1889 34.9055 65.1767 34.9577 65.18 35.01C65.1842 35.063 65.2037 35.1136 65.2361 35.1558C65.2685 35.1979 65.3124 35.2298 65.3625 35.2475C65.4121 35.2658 65.466 35.2693 65.5175 35.2575C68.7636 34.5242 71.7922 33.0392 74.3597 30.922C76.9272 28.8048 78.9619 26.1145 80.3 23.0675C80.3341 23.0126 80.3814 22.967 80.4375 22.935C80.4936 22.9035 80.5569 22.8869 80.6213 22.8869C80.6856 22.8869 80.7489 22.9035 80.805 22.935C80.8604 22.9672 80.9068 23.0127 80.94 23.0675C83.6957 28.3455 84.6258 34.3901 83.585 40.2525ZM46.2375 49.07C45.1557 49.07 44.0981 49.3908 43.1986 49.9919C42.299 50.5929 41.5979 51.4472 41.1839 52.4467C40.7699 53.4462 40.6616 54.5461 40.8726 55.6072C41.0837 56.6682 41.6047 57.6429 42.3697 58.4079C43.1346 59.1729 44.1093 59.6938 45.1704 59.9049C46.2315 60.116 47.3313 60.0076 48.3308 59.5936C49.3303 59.1796 50.1846 58.4785 50.7857 57.579C51.3867 56.6794 51.7075 55.6219 51.7075 54.54V49.435C51.7027 49.3371 51.6616 49.2445 51.5923 49.1752C51.523 49.1059 51.4304 49.0648 51.3325 49.06L46.2375 49.07Z" fill="#D0D0D9"/>
</g>
</g>
</g>
<defs>
<filter id="filter0_bdi_608_6931" x="-38" y="-42" width="184" height="184" filterUnits="userSpaceOnUse" color-interpolation-filters="sRGB">
<feFlood flood-opacity="0" result="BackgroundImageFix"/>
<feGaussianBlur in="BackgroundImageFix" stdDeviation="21"/>
<feComposite in2="SourceAlpha" operator="in" result="effect1_backgroundBlur_608_6931"/>
<feColorMatrix in="SourceAlpha" type="matrix" values="0 0 0 0 0 0 0 0 0 0 0 0 0 0 0 0 0 0 127 0" result="hardAlpha"/>
<feOffset dy="4"/>
<feGaussianBlur stdDeviation="2"/>
<feComposite in2="hardAlpha" operator="out"/>
<feColorMatrix type="matrix" values="0 0 0 0 0 0 0 0 0 0 0 0 0 0 0 0 0 0 0.25 0"/>
<feBlend mode="normal" in2="effect1_backgroundBlur_608_6931" result="effect2_dropShadow_608_6931"/>
<feBlend mode="normal" in="SourceGraphic" in2="effect2_dropShadow_608_6931" result="shape"/>
<feColorMatrix in="SourceAlpha" type="matrix" values="0 0 0 0 0 0 0 0 0 0 0 0 0 0 0 0 0 0 127 0" result="hardAlpha"/>
<feOffset dx="-5" dy="-5"/>
<feGaussianBlur stdDeviation="125"/>
<feComposite in2="hardAlpha" operator="arithmetic" k2="-1" k3="1"/>
<feColorMatrix type="matrix" values="0 0 0 0 1 0 0 0 0 1 0 0 0 0 1 0 0 0 0.02 0"/>
<feBlend mode="normal" in2="shape" result="effect3_innerShadow_608_6931"/>
</filter>
<filter id="filter1_i_608_6931" x="24" y="22.8869" width="60" height="58.2261" filterUnits="userSpaceOnUse" color-interpolation-filters="sRGB">
<feFlood flood-opacity="0" result="BackgroundImageFix"/>
<feBlend mode="normal" in="SourceGraphic" in2="BackgroundImageFix" result="shape"/>
<feColorMatrix in="SourceAlpha" type="matrix" values="0 0 0 0 0 0 0 0 0 0 0 0 0 0 0 0 0 0 127 0" result="hardAlpha"/>
<feOffset dy="4"/>
<feGaussianBlur stdDeviation="2"/>
<feComposite in2="hardAlpha" operator="arithmetic" k2="-1" k3="1"/>
<feColorMatrix type="matrix" values="0 0 0 0 0 0 0 0 0 0 0 0 0 0 0 0 0 0 0.25 0"/>
<feBlend mode="normal" in2="shape" result="effect1_innerShadow_608_6931"/>
</filter>
<radialGradient id="paint0_radial_608_6931" cx="0" cy="0" r="1" gradientUnits="userSpaceOnUse" gradientTransform="translate(4) rotate(45) scale(141.421 98.2651)">
<stop stop-color="white" stop-opacity="0.4"/>
<stop offset="1" stop-color="white" stop-opacity="0"/>
</radialGradient>
<clipPath id="clip0_608_6931">
<rect width="60" height="60" fill="white" transform="translate(24 20)"/>
</clipPath>
</defs>
</svg>
