<?xml version="1.0" encoding="UTF-8"?>
<svg id="Camada_1" data-name="Camada 1" xmlns="http://www.w3.org/2000/svg" viewBox="0 0 43.62 36.5">
  <defs>
    <style>
      .cls-1 {
        fill-rule: evenodd;
      }

      .cls-1, .cls-2 {
        fill: #8c81f7;
      }

      .cls-3 {
        fill: #fff;
      }

      .cls-4 {
        fill: none;
        stroke: #8c81f7;
        stroke-linecap: round;
        stroke-linejoin: round;
        stroke-width: 2px;
      }
    </style>
  </defs>
  <path class="cls-1" d="m21.81,36.5c8.11,0,14.69-6.58,14.69-14.69s-6.58-14.69-14.69-14.69-14.69,6.58-14.69,14.69,6.58,14.69,14.69,14.69Zm-5.51-15.91c1.01,0,1.84-.82,1.84-1.84s-.82-1.84-1.84-1.84-1.84.82-1.84,1.84.82,1.84,1.84,1.84Zm11.02,0c1.01,0,1.84-.82,1.84-1.84s-.82-1.84-1.84-1.84-1.84.82-1.84,1.84.82,1.84,1.84,1.84Zm-1.84,7.58c1.12-.64,2.05-1.57,2.69-2.68l-.86-.61s-.7,1.1-1.84,1.84c-1.08.7-2.39,1.15-3.67,1.22-1.51.09-2.42-.37-3.67-1.22-.84-.57-1.84-1.84-1.84-1.84l-.86.61c.65,1.11,1.58,2.04,2.69,2.68,1.12.64,2.38.98,3.67.98s2.56-.34,3.67-.98Z"/>
  <path class="cls-2" d="m1,19.36v6.66c0,.5.13.99.36,1.35.23.36.54.56.87.56h1.22c.32,0,.64-.2.87-.56.23-.36.36-.84.36-1.35v-4.76c0-.51-.13-.99-.36-1.35s-.54-.56-.87-.56H1Z"/>
  <path class="cls-2" d="m42.62,19.36v6.66c0,.5-.13.99-.36,1.35-.23.36-.54.56-.87.56h-1.22c-.32,0-.64-.2-.87-.56-.23-.36-.36-.84-.36-1.35v-4.76c0-.51.13-.99.36-1.35.23-.36.54-.56.87-.56h2.45Z"/>
  <path class="cls-4" d="m40.17,14.46c-1.03-2.67-2.55-5.08-4.46-7.12-1.91-2.03-4.18-3.64-6.67-4.73-2.49-1.09-5.16-1.64-7.85-1.61-2.69-.02-5.36.53-7.85,1.62-2.49,1.09-4.75,2.7-6.66,4.73-1.91,2.03-3.42,4.45-4.46,7.12m37.95,9.79c0,2.27-.51,4.45-1.41,6.06s-2.13,2.51-3.4,2.51h-8.65M1,19.36v6.66c0,.5.13.99.36,1.35.23.36.54.56.87.56h1.22c.32,0,.64-.2.87-.56.23-.36.36-.84.36-1.35v-4.76c0-.51-.13-.99-.36-1.35s-.54-.56-.87-.56H1Zm41.62,0v6.66c0,.5-.13.99-.36,1.35-.23.36-.54.56-.87.56h-1.22c-.32,0-.64-.2-.87-.56-.23-.36-.36-.84-.36-1.35v-4.76c0-.51.13-.99.36-1.35.23-.36.54-.56.87-.56h2.45Z"/>
  <path class="cls-3" d="m24.26,32.83c.17-.83.48-1.1,1.22-1.22h7.34l-1.84,1.47-1.22.98h-4.28c-.74-.12-1.06-.39-1.22-1.22Z"/>
</svg>