<svg width="1920" height="1542" viewBox="0 0 1920 1542" fill="none" xmlns="http://www.w3.org/2000/svg">
<g clip-path="url(#clip0_1267_301)">
<path d="M0 80C0 35.8173 35.8172 0 80 0H1840C1884.18 0 1920 35.8172 1920 80V1566H0V80Z" fill="#F5F5F5"/>
<g filter="url(#filter0_bi_1267_301)">
<path d="M957.776 1369.13C1290.16 1369.13 1559.6 1099.69 1559.6 767.309C1559.6 434.93 1290.16 165.483 957.776 165.483C625.397 165.483 355.95 434.93 355.95 767.309C355.95 1099.69 625.397 1369.13 957.776 1369.13Z" fill="#1E1E1E" fill-opacity="0.05"/>
</g>
<g filter="url(#filter1_bi_1267_301)">
<path d="M958.5 1243.12C1220.88 1243.12 1433.59 1030.42 1433.59 768.033C1433.59 505.649 1220.88 292.945 958.5 292.945C696.117 292.945 483.413 505.649 483.413 768.033C483.413 1030.42 696.117 1243.12 958.5 1243.12Z" fill="#1F1F1F" fill-opacity="0.1"/>
</g>
<g filter="url(#filter2_bi_1267_301)">
<path d="M958.5 1151.87C1170.49 1151.87 1342.34 980.019 1342.34 768.033C1342.34 556.046 1170.49 384.197 958.5 384.197C746.513 384.197 574.664 556.046 574.664 768.033C574.664 980.019 746.513 1151.87 958.5 1151.87Z" fill="#1E1E1E" fill-opacity="0.2"/>
</g>
<g filter="url(#filter3_bi_1267_301)">
<path d="M957.776 1083.79C1132.56 1083.79 1274.26 942.098 1274.26 767.309C1274.26 592.52 1132.56 450.825 957.776 450.825C782.987 450.825 641.292 592.52 641.292 767.309C641.292 942.098 782.987 1083.79 957.776 1083.79Z" fill="#1E1E1E"/>
</g>
<g filter="url(#filter4_bi_1267_301)">
<path fill-rule="evenodd" clip-rule="evenodd" d="M-432 -453H2349V1566.12H-432V-453ZM958.5 1151.87C1170.49 1151.87 1342.34 980.02 1342.34 768.033C1342.34 556.046 1170.49 384.197 958.5 384.197C746.513 384.197 574.664 556.046 574.664 768.033C574.664 980.02 746.513 1151.87 958.5 1151.87Z" fill="url(#paint0_radial_1267_301)"/>
</g>
</g>
<defs>
<filter id="filter0_bi_1267_301" x="339.95" y="149.483" width="1235.65" height="1235.65" filterUnits="userSpaceOnUse" color-interpolation-filters="sRGB">
<feFlood flood-opacity="0" result="BackgroundImageFix"/>
<feGaussianBlur in="BackgroundImageFix" stdDeviation="8"/>
<feComposite in2="SourceAlpha" operator="in" result="effect1_backgroundBlur_1267_301"/>
<feBlend mode="normal" in="SourceGraphic" in2="effect1_backgroundBlur_1267_301" result="shape"/>
<feColorMatrix in="SourceAlpha" type="matrix" values="0 0 0 0 0 0 0 0 0 0 0 0 0 0 0 0 0 0 127 0" result="hardAlpha"/>
<feOffset dx="-5" dy="-5"/>
<feGaussianBlur stdDeviation="125"/>
<feComposite in2="hardAlpha" operator="arithmetic" k2="-1" k3="1"/>
<feColorMatrix type="matrix" values="0 0 0 0 1 0 0 0 0 1 0 0 0 0 1 0 0 0 0.02 0"/>
<feBlend mode="normal" in2="shape" result="effect2_innerShadow_1267_301"/>
</filter>
<filter id="filter1_bi_1267_301" x="467.413" y="276.945" width="982.175" height="982.175" filterUnits="userSpaceOnUse" color-interpolation-filters="sRGB">
<feFlood flood-opacity="0" result="BackgroundImageFix"/>
<feGaussianBlur in="BackgroundImageFix" stdDeviation="8"/>
<feComposite in2="SourceAlpha" operator="in" result="effect1_backgroundBlur_1267_301"/>
<feBlend mode="normal" in="SourceGraphic" in2="effect1_backgroundBlur_1267_301" result="shape"/>
<feColorMatrix in="SourceAlpha" type="matrix" values="0 0 0 0 0 0 0 0 0 0 0 0 0 0 0 0 0 0 127 0" result="hardAlpha"/>
<feOffset dx="-5" dy="-5"/>
<feGaussianBlur stdDeviation="125"/>
<feComposite in2="hardAlpha" operator="arithmetic" k2="-1" k3="1"/>
<feColorMatrix type="matrix" values="0 0 0 0 1 0 0 0 0 1 0 0 0 0 1 0 0 0 0.02 0"/>
<feBlend mode="normal" in2="shape" result="effect2_innerShadow_1267_301"/>
</filter>
<filter id="filter2_bi_1267_301" x="558.664" y="368.197" width="799.672" height="799.672" filterUnits="userSpaceOnUse" color-interpolation-filters="sRGB">
<feFlood flood-opacity="0" result="BackgroundImageFix"/>
<feGaussianBlur in="BackgroundImageFix" stdDeviation="8"/>
<feComposite in2="SourceAlpha" operator="in" result="effect1_backgroundBlur_1267_301"/>
<feBlend mode="normal" in="SourceGraphic" in2="effect1_backgroundBlur_1267_301" result="shape"/>
<feColorMatrix in="SourceAlpha" type="matrix" values="0 0 0 0 0 0 0 0 0 0 0 0 0 0 0 0 0 0 127 0" result="hardAlpha"/>
<feOffset dx="-5" dy="-5"/>
<feGaussianBlur stdDeviation="125"/>
<feComposite in2="hardAlpha" operator="arithmetic" k2="-1" k3="1"/>
<feColorMatrix type="matrix" values="0 0 0 0 1 0 0 0 0 1 0 0 0 0 1 0 0 0 0.02 0"/>
<feBlend mode="normal" in2="shape" result="effect2_innerShadow_1267_301"/>
</filter>
<filter id="filter3_bi_1267_301" x="625.292" y="434.825" width="664.967" height="664.967" filterUnits="userSpaceOnUse" color-interpolation-filters="sRGB">
<feFlood flood-opacity="0" result="BackgroundImageFix"/>
<feGaussianBlur in="BackgroundImageFix" stdDeviation="8"/>
<feComposite in2="SourceAlpha" operator="in" result="effect1_backgroundBlur_1267_301"/>
<feBlend mode="normal" in="SourceGraphic" in2="effect1_backgroundBlur_1267_301" result="shape"/>
<feColorMatrix in="SourceAlpha" type="matrix" values="0 0 0 0 0 0 0 0 0 0 0 0 0 0 0 0 0 0 127 0" result="hardAlpha"/>
<feOffset dx="-5" dy="-5"/>
<feGaussianBlur stdDeviation="125"/>
<feComposite in2="hardAlpha" operator="arithmetic" k2="-1" k3="1"/>
<feColorMatrix type="matrix" values="0 0 0 0 1 0 0 0 0 1 0 0 0 0 1 0 0 0 0.02 0"/>
<feBlend mode="normal" in2="shape" result="effect2_innerShadow_1267_301"/>
</filter>
<filter id="filter4_bi_1267_301" x="-448" y="-469" width="2813" height="2051.12" filterUnits="userSpaceOnUse" color-interpolation-filters="sRGB">
<feFlood flood-opacity="0" result="BackgroundImageFix"/>
<feGaussianBlur in="BackgroundImageFix" stdDeviation="8"/>
<feComposite in2="SourceAlpha" operator="in" result="effect1_backgroundBlur_1267_301"/>
<feBlend mode="normal" in="SourceGraphic" in2="effect1_backgroundBlur_1267_301" result="shape"/>
<feColorMatrix in="SourceAlpha" type="matrix" values="0 0 0 0 0 0 0 0 0 0 0 0 0 0 0 0 0 0 127 0" result="hardAlpha"/>
<feOffset dx="-5" dy="-5"/>
<feGaussianBlur stdDeviation="125"/>
<feComposite in2="hardAlpha" operator="arithmetic" k2="-1" k3="1"/>
<feColorMatrix type="matrix" values="0 0 0 0 1 0 0 0 0 1 0 0 0 0 1 0 0 0 0.02 0"/>
<feBlend mode="normal" in2="shape" result="effect2_innerShadow_1267_301"/>
</filter>
<radialGradient id="paint0_radial_1267_301" cx="0" cy="0" r="1" gradientUnits="userSpaceOnUse" gradientTransform="translate(-432 -122.755) rotate(33.7726) scale(3345.56 2148.38)">
<stop stop-color="white" stop-opacity="0.4"/>
<stop offset="1" stop-color="white" stop-opacity="0"/>
</radialGradient>
<clipPath id="clip0_1267_301">
<path d="M0 80C0 35.8173 35.8172 0 80 0H1840C1884.18 0 1920 35.8172 1920 80V1566H0V80Z" fill="white"/>
</clipPath>
</defs>
</svg>
