<svg width="24" height="16" viewBox="0 0 24 16" fill="none" xmlns="http://www.w3.org/2000/svg">
<path d="M12 0.78125L0.9375 8L12 15.2188L23.0625 8L12 0.78125ZM12 3.3125C13.2432 3.3125 14.4355 3.80636 15.3146 4.68544C16.1936 5.56451 16.6875 6.7568 16.6875 8C16.6875 8.15677 16.6796 8.31343 16.6639 8.46941C14.4081 6.7738 11.4839 5.77212 8.74603 5.82523C8.43516 5.83133 8.12695 5.85177 7.82217 5.88552C8.21286 5.11253 8.81008 4.46291 9.54754 4.00872C10.285 3.55453 11.1339 3.31355 12 3.3125ZM8.9265 6.67484C11.5323 6.68108 14.3829 7.70886 16.4755 9.39261C16.1784 10.3473 15.5839 11.1821 14.7787 11.7748C13.9735 12.3676 12.9999 12.6874 12 12.6875C10.7568 12.6875 9.56451 12.1936 8.68544 11.3146C7.80636 10.4355 7.3125 9.2432 7.3125 8C7.31435 7.58911 7.37022 7.18025 7.47867 6.78392C7.94798 6.70925 8.43277 6.67367 8.9265 6.67484Z" fill="white"/>
</svg>
