<svg width="24" height="24" viewBox="0 0 24 24" fill="none" xmlns="http://www.w3.org/2000/svg">
<g id="twemoji:flag-spain">
<path id="Vector" d="M23.5 18.0002C23.5 18.5748 23.2717 19.1259 22.8654 19.5322C22.4591 19.9386 21.908 20.1668 21.3333 20.1668H2.66667C2.09203 20.1668 1.54093 19.9386 1.1346 19.5322C0.728273 19.1259 0.5 18.5748 0.5 18.0002V6.00016C0.5 5.42553 0.728273 4.87443 1.1346 4.4681C1.54093 4.06177 2.09203 3.8335 2.66667 3.8335H21.3333C21.908 3.8335 22.4591 4.06177 22.8654 4.4681C23.2717 4.87443 23.5 5.42553 23.5 6.00016V18.0002Z" stroke="white"/>
<path id="Vector_2" d="M0 8H24V16H0V8Z" fill="white"/>
<path id="Vector_3" d="M6 11.3335V13.3335C6 13.8639 6.21071 14.3726 6.58579 14.7477C6.96086 15.1228 7.46957 15.3335 8 15.3335C8.53043 15.3335 9.03914 15.1228 9.41421 14.7477C9.78929 14.3726 10 13.8639 10 13.3335V11.3335H6Z" fill="#1E1E1E"/>
<path id="Vector_4" d="M8 10.6665H10V12.6665H8V10.6665Z" fill="#1E1E1E"/>
<path id="Vector_5" d="M6 10.6665H8V12.6665H6V10.6665Z" fill="#1E1E1E"/>
<path id="Vector_6" d="M8 10.6665C9.10457 10.6665 10 10.2188 10 9.6665C10 9.11422 9.10457 8.6665 8 8.6665C6.89543 8.6665 6 9.11422 6 9.6665C6 10.2188 6.89543 10.6665 8 10.6665Z" fill="#1E1E1E"/>
<path id="Vector_7" d="M8 9.6665C9.10457 9.6665 10 9.44265 10 9.1665C10 8.89036 9.10457 8.6665 8 8.6665C6.89543 8.6665 6 8.89036 6 9.1665C6 9.44265 6.89543 9.6665 8 9.6665Z" fill="#1E1E1E"/>
<path id="Vector_8" d="M4.66666 10.6665H5.33332V15.3332H4.66666V10.6665ZM10.6667 10.6665H11.3333V15.3332H10.6667V10.6665Z" fill="#1E1E1E"/>
<path id="Vector_9" d="M4 14.6667H6V15.3333H4V14.6667ZM10 14.6667H12V15.3333H10V14.6667ZM4.66667 10H5.33333V10.6667H4.66667V10ZM10.6667 10H11.3333V10.6667H10.6667V10Z" fill="#1E1E1E"/>
</g>
</svg>
