<svg width="20" height="14" viewBox="0 0 20 14" fill="none" xmlns="http://www.w3.org/2000/svg">
<path d="M0.25 0.25V7.75H19.75V6.25H10.75V4.75H19.75V3.25H10.75V1.75H19.75V0.25H0.25ZM1.75 1C1.94891 1 2.13968 1.07902 2.28033 1.21967C2.42098 1.36032 2.5 1.55109 2.5 1.75C2.5 1.94891 2.42098 2.13968 2.28033 2.28033C2.13968 2.42098 1.94891 2.5 1.75 2.5C1.55109 2.5 1.36032 2.42098 1.21967 2.28033C1.07902 2.13968 1 1.94891 1 1.75C1 1.55109 1.07902 1.36032 1.21967 1.21967C1.36032 1.07902 1.55109 1 1.75 1ZM4.75 1C4.94891 1 5.13968 1.07902 5.28033 1.21967C5.42098 1.36032 5.5 1.55109 5.5 1.75C5.5 1.94891 5.42098 2.13968 5.28033 2.28033C5.13968 2.42098 4.94891 2.5 4.75 2.5C4.55109 2.5 4.36032 2.42098 4.21967 2.28033C4.07902 2.13968 4 1.94891 4 1.75C4 1.55109 4.07902 1.36032 4.21967 1.21967C4.36032 1.07902 4.55109 1 4.75 1ZM7.75 1C7.94891 1 8.13968 1.07902 8.28033 1.21967C8.42098 1.36032 8.5 1.55109 8.5 1.75C8.5 1.94891 8.42098 2.13968 8.28033 2.28033C8.13968 2.42098 7.94891 2.5 7.75 2.5C7.55109 2.5 7.36032 2.42098 7.21967 2.28033C7.07902 2.13968 7 1.94891 7 1.75C7 1.55109 7.07902 1.36032 7.21967 1.21967C7.36032 1.07902 7.55109 1 7.75 1ZM3.25 3.25C3.44891 3.25 3.63968 3.32902 3.78033 3.46967C3.92098 3.61032 4 3.80109 4 4C4 4.19891 3.92098 4.38968 3.78033 4.53033C3.63968 4.67098 3.44891 4.75 3.25 4.75C3.05109 4.75 2.86032 4.67098 2.71967 4.53033C2.57902 4.38968 2.5 4.19891 2.5 4C2.5 3.80109 2.57902 3.61032 2.71967 3.46967C2.86032 3.32902 3.05109 3.25 3.25 3.25ZM6.25 3.25C6.44891 3.25 6.63968 3.32902 6.78033 3.46967C6.92098 3.61032 7 3.80109 7 4C7 4.19891 6.92098 4.38968 6.78033 4.53033C6.63968 4.67098 6.44891 4.75 6.25 4.75C6.05109 4.75 5.86032 4.67098 5.71967 4.53033C5.57902 4.38968 5.5 4.19891 5.5 4C5.5 3.80109 5.57902 3.61032 5.71967 3.46967C5.86032 3.32902 6.05109 3.25 6.25 3.25ZM9.25 3.25C9.44891 3.25 9.63968 3.32902 9.78033 3.46967C9.92098 3.61032 10 3.80109 10 4C10 4.19891 9.92098 4.38968 9.78033 4.53033C9.63968 4.67098 9.44891 4.75 9.25 4.75C9.05109 4.75 8.86032 4.67098 8.71967 4.53033C8.57902 4.38968 8.5 4.19891 8.5 4C8.5 3.80109 8.57902 3.61032 8.71967 3.46967C8.86032 3.32902 9.05109 3.25 9.25 3.25ZM1.75 5.5C1.94891 5.5 2.13968 5.57902 2.28033 5.71967C2.42098 5.86032 2.5 6.05109 2.5 6.25C2.5 6.44891 2.42098 6.63968 2.28033 6.78033C2.13968 6.92098 1.94891 7 1.75 7C1.55109 7 1.36032 6.92098 1.21967 6.78033C1.07902 6.63968 1 6.44891 1 6.25C1 6.05109 1.07902 5.86032 1.21967 5.71967C1.36032 5.57902 1.55109 5.5 1.75 5.5ZM4.75 5.5C4.94891 5.5 5.13968 5.57902 5.28033 5.71967C5.42098 5.86032 5.5 6.05109 5.5 6.25C5.5 6.44891 5.42098 6.63968 5.28033 6.78033C5.13968 6.92098 4.94891 7 4.75 7C4.55109 7 4.36032 6.92098 4.21967 6.78033C4.07902 6.63968 4 6.44891 4 6.25C4 6.05109 4.07902 5.86032 4.21967 5.71967C4.36032 5.57902 4.55109 5.5 4.75 5.5ZM7.75 5.5C7.94891 5.5 8.13968 5.57902 8.28033 5.71967C8.42098 5.86032 8.5 6.05109 8.5 6.25C8.5 6.44891 8.42098 6.63968 8.28033 6.78033C8.13968 6.92098 7.94891 7 7.75 7C7.55109 7 7.36032 6.92098 7.21967 6.78033C7.07902 6.63968 7 6.44891 7 6.25C7 6.05109 7.07902 5.86032 7.21967 5.71967C7.36032 5.57902 7.55109 5.5 7.75 5.5ZM0.25 9.25V10.75H19.75V9.25H0.25ZM0.25 12.25V13.75H19.75V12.25H0.25Z" fill="white"/>
</svg>
