<svg width="40" height="40" viewBox="0 0 40 40" fill="none" xmlns="http://www.w3.org/2000/svg">
<path d="M3.50777e-06 28.9298C3.50777e-06 29.1253 0.045401 29.3135 0.126995 29.4563L6.01437 39.756C6.10335 39.9117 6.22775 40 6.35797 40H13.6198C15.8115 40 17.5882 38.2233 17.5882 36.0316C17.5882 32.3856 22.0921 30.6693 24.5186 33.3906L28.5412 37.9021C29.7312 39.2368 31.4343 40 33.2224 40H39.2157C39.6488 40 40 39.4251 40 38.7159L40 29.826L35.9547 29.8456H33.9997L32.9705 28.2L29.883 23.3552V17.3585H1.97312e-06L3.50777e-06 28.9298Z" fill="#8329F6"/>
<path d="M33.9856 0.244005C33.8966 0.0883415 33.7723 0 33.642 0H29.0607C26.6014 0 24.6078 1.9936 24.6078 4.45284C24.6078 8.55315 19.535 10.4741 16.819 7.40226L12.364 2.36335C11.0354 0.860563 9.12584 0 7.11993 0H0.784316C0.351152 0 0 0.574914 0 1.28411L1.31541e-06 12.0755H29.883V10.5635C29.883 10.5199 29.8939 10.478 29.9132 10.4471L31.9414 7.20411H33.8625V12.0755H40V11.0702C40 9.94292 39.6686 8.84052 39.0469 7.90015L33.9856 0.244005Z" fill="#8329F6"/>
<path d="M33.8625 24.086C33.8625 24.5404 34.0928 24.9088 34.377 24.9088L40 24.909V17.3585H33.8625V24.086Z" fill="#8329F6"/>
</svg>
