<?xml version="1.0" encoding="UTF-8"?>
<svg id="Camada_1" data-name="Camada 1" xmlns="http://www.w3.org/2000/svg" xmlns:xlink="http://www.w3.org/1999/xlink" viewBox="0 0 1920 1486">
  <defs>
    <style>
      .cls-1 {
        fill: #9f5cf6;
      }

      .cls-2 {
        fill: rgba(159, 92, 246, .1);
      }

      .cls-3, .cls-4 {
        fill: #f5f5f5;
      }

      .cls-5 {
        fill: url(#Gradiente_sem_nome_4);
      }

      .cls-6 {
        stroke: url(#Gradiente_sem_nome_5);
        stroke-opacity: .4;
      }

      .cls-6, .cls-7 {
        fill: none;
      }

      .cls-8 {
        fill: rgba(198, 152, 231, .5);
      }

      .cls-9 {
        fill: #925adc;
      }

      .cls-10 {
        fill: rgba(159, 92, 246, .05);
      }

      .cls-11 {
        fill: url(#Gradiente_sem_nome_4-3);
      }

      .cls-12 {
        fill: url(#Gradiente_sem_nome_4-2);
      }

      .cls-13 {
        fill: #713cb6;
        stroke: #6631aa;
        stroke-width: 4px;
      }

      .cls-14 {
        clip-path: url(#clippath);
      }

      .cls-15 {
        fill: url(#Gradiente_sem_nome_6);
        fill-rule: evenodd;
      }

      .cls-16 {
        fill: rgba(198, 152, 231, .2);
      }

      .cls-4 {
        stroke: #c2c2c2;
      }

      .cls-17 {
        fill: #d9d9d9;
      }

      .cls-18 {
        fill: url(#Gradiente_sem_nome_4-4);
      }

      .cls-19 {
        fill: #1e1e1e;
      }
    </style>
    <clipPath id="clippath">
      <path class="cls-7" d="m0,180C0,135.82,35.82,100,80,100h1760c44.18,0,80,35.82,80,80v1306H0V180Z"/>
    </clipPath>
    <linearGradient id="Gradiente_sem_nome_4" data-name="Gradiente sem nome 4" x1="424.87" y1="506.63" x2="549.87" y2="506.63" gradientTransform="translate(973.37 1417.87) rotate(-90)" gradientUnits="userSpaceOnUse">
      <stop offset="0" stop-color="#7a7b7f"/>
      <stop offset=".4" stop-color="#c7c9cb"/>
      <stop offset=".61" stop-color="#eaeaeb"/>
      <stop offset=".7" stop-color="#f9f9f9"/>
      <stop offset=".83" stop-color="#808081"/>
      <stop offset=".87" stop-color="#696969"/>
      <stop offset=".89" stop-color="#8f8f90"/>
      <stop offset=".91" stop-color="#b2b2b3"/>
      <stop offset=".95" stop-color="#cfd0d1"/>
      <stop offset=".97" stop-color="#e0e1e3"/>
    </linearGradient>
    <linearGradient id="Gradiente_sem_nome_4-2" data-name="Gradiente sem nome 4" x1="362.94" y1="1456.06" x2="487.94" y2="1456.06" gradientTransform="translate(539.06 1933.56) scale(1 -1)" xlink:href="#Gradiente_sem_nome_4"/>
    <linearGradient id="Gradiente_sem_nome_4-3" data-name="Gradiente sem nome 4" x1="362.94" y1="683.06" x2="487.94" y2="683.06" gradientTransform="translate(539.06 1933.56) scale(1 -1)" xlink:href="#Gradiente_sem_nome_4"/>
    <linearGradient id="Gradiente_sem_nome_4-4" data-name="Gradiente sem nome 4" gradientTransform="translate(-66.63 1417.87) rotate(-90)" xlink:href="#Gradiente_sem_nome_4"/>
    <linearGradient id="Gradiente_sem_nome_5" data-name="Gradiente sem nome 5" x1="394.07" y1="1138.79" x2="446.09" y2="867.32" gradientTransform="translate(539.06 1933.56) scale(1 -1)" gradientUnits="userSpaceOnUse">
      <stop offset="0" stop-color="#fff"/>
      <stop offset="1" stop-color="#eeeded" stop-opacity=".5"/>
    </linearGradient>
    <radialGradient id="Gradiente_sem_nome_6" data-name="Gradiente sem nome 6" cx="1.11" cy="1487.15" fx="1.11" fy="1487.15" r="1" gradientTransform="translate(-1228332.68 1832457.86) rotate(33.77) scale(2309.77 -1483.24)" gradientUnits="userSpaceOnUse">
      <stop offset="0" stop-color="#fff" stop-opacity=".4"/>
      <stop offset="1" stop-color="#fff" stop-opacity="0"/>
    </radialGradient>
  </defs>
  <rect class="cls-19" x="0" width="1920" height="1486"/>
  <g class="cls-14">
    <g>
      <path class="cls-3" d="m0,180C0,135.82,35.82,100,80,100h1760c44.18,0,80,35.82,80,80v1306H0V180Z"/>
      <path class="cls-10" d="m959.5,1350c229.47,0,415.5-186.03,415.5-415.5s-186.03-415.5-415.5-415.5-415.5,186.03-415.5,415.5,186.03,415.5,415.5,415.5Z"/>
      <path class="cls-2" d="m960,1263c181.15,0,328-146.85,328-328s-146.85-328-328-328-328,146.85-328,328,146.85,328,328,328Z"/>
      <path class="cls-16" d="m960,1200c146.36,0,265-118.64,265-265s-118.64-265-265-265-265,118.65-265,265,118.65,265,265,265Z"/>
      <path class="cls-8" d="m959.5,1153c120.67,0,218.5-97.83,218.5-218.5s-97.83-218.5-218.5-218.5-218.5,97.83-218.5,218.5,97.83,218.5,218.5,218.5Z"/>
      <rect class="cls-5" x="1040" y="900" width="880" height="70"/>
      <rect class="cls-7" x="1040" y="900" width="880" height="70"/>
      <rect class="cls-17" x="925" y="100" width="70" height="755"/>
      <rect class="cls-12" x="925" y="100" width="70" height="755"/>
      <rect class="cls-7" x="925" y="100" width="70" height="755"/>
      <rect class="cls-17" x="925" y="1015" width="70" height="471"/>
      <rect class="cls-11" x="925" y="1015" width="70" height="471"/>
      <rect class="cls-7" x="925" y="1015" width="70" height="471"/>
      <rect class="cls-17" x="0" y="900" width="880" height="70"/>
      <rect class="cls-18" x="0" y="900" width="880" height="70"/>
      <rect class="cls-7" x="0" y="900" width="880" height="70"/>
      <g>
        <path class="cls-1" d="m960,813h0c67.38,0,122,54.62,122,122h0c0,67.38-54.62,122-122,122h0c-67.38,0-122-54.62-122-122h0c0-67.38,54.62-122,122-122Z"/>
        <path class="cls-7" d="m960,813h0c67.38,0,122,54.62,122,122h0c0,67.38-54.62,122-122,122h0c-67.38,0-122-54.62-122-122h0c0-67.38,54.62-122,122-122Z"/>
      </g>
      <path class="cls-6" d="m960,813.5h0c67.1,0,121.5,54.4,121.5,121.5h0c0,67.1-54.4,121.5-121.5,121.5h0c-67.1,0-121.5-54.4-121.5-121.5h0c0-67.1,54.4-121.5,121.5-121.5Z"/>
      <path class="cls-9" d="m960,855h0c44.18,0,80,35.82,80,80h0c0,44.18-35.82,80-80,80h0c-44.18,0-80-35.82-80-80h0c0-44.18,35.82-80,80-80Z"/>
      <path class="cls-13" d="m960,871h0c35.35,0,64,28.65,64,64h0c0,35.35-28.65,64-64,64h0c-35.35,0-64-28.65-64-64h0c0-35.35,28.65-64,64-64Z"/>
      <path class="cls-4" d="m960,1107.5h0c12.98,0,23.5,10.52,23.5,23.5h0c0,12.98-10.52,23.5-23.5,23.5h0c-12.98,0-23.5-10.52-23.5-23.5h0c0-12.98,10.52-23.5,23.5-23.5Z"/>
      <path class="cls-4" d="m1156,911.5h0c12.98,0,23.5,10.52,23.5,23.5h0c0,12.98-10.52,23.5-23.5,23.5h0c-12.98,0-23.5-10.52-23.5-23.5h0c0-12.98,10.52-23.5,23.5-23.5Z"/>
      <path class="cls-4" d="m764,911.5h0c12.98,0,23.5,10.52,23.5,23.5h0c0,12.98-10.52,23.5-23.5,23.5h0c-12.98,0-23.5-10.52-23.5-23.5h0c0-12.98,10.52-23.5,23.5-23.5Z"/>
      <path class="cls-4" d="m960,715.5h0c12.98,0,23.5,10.52,23.5,23.5h0c0,12.98-10.52,23.5-23.5,23.5h0c-12.98,0-23.5-10.52-23.5-23.5h0c0-12.98,10.52-23.5,23.5-23.5Z"/>
      <path class="cls-15" d="m0,92h1920v1394H0V92Zm960,1108c146.36,0,265-118.64,265-265s-118.64-265-265-265-265,118.65-265,265,118.65,265,265,265Z"/>
    </g>
  </g>
</svg>