<?xml version="1.0" encoding="UTF-8"?>
<svg id="Camada_1" data-name="Camada 1" xmlns="http://www.w3.org/2000/svg" viewBox="0 0 28 28">
  <defs>
    <style>
      .cls-1 {
        fill: #8c81f7;
      }
    </style>
  </defs>
  <path class="cls-1" d="m7,.88c0-.23-.09-.45-.26-.62-.16-.16-.39-.26-.62-.26s-.45.09-.62.26c-.16.16-.26.39-.26.62v.88h-1.75c-.93,0-1.82.37-2.47,1.03-.66.66-1.03,1.55-1.03,2.47v1.75h28v-1.75c0-.93-.37-1.82-1.03-2.47-.66-.66-1.55-1.03-2.47-1.03h-1.75v-.88c0-.23-.09-.45-.26-.62-.16-.16-.39-.26-.62-.26s-.45.09-.62.26c-.16.16-.26.39-.26.62v.88H7v-.88Zm21,23.62v-15.75H0v15.75c0,.93.37,1.82,1.03,2.47.66.66,1.55,1.03,2.47,1.03h21c.93,0,1.82-.37,2.47-1.03.66-.66,1.03-1.55,1.03-2.47Zm-13.12-9.62v2.62h2.62c.23,0,.45.09.62.26s.26.39.26.62-.09.45-.26.62-.39.26-.62.26h-2.62v2.62c0,.23-.09.45-.26.62s-.39.26-.62.26-.45-.09-.62-.26-.26-.39-.26-.62v-2.62h-2.62c-.23,0-.45-.09-.62-.26-.16-.16-.26-.39-.26-.62s.09-.45.26-.62c.16-.16.39-.26.62-.26h2.62v-2.62c0-.23.09-.45.26-.62s.39-.26.62-.26.45.09.62.26.26.39.26.62Z"/>
</svg>