<?xml version="1.0" encoding="UTF-8"?>
<svg id="Camada_1" data-name="Camada 1" xmlns="http://www.w3.org/2000/svg" viewBox="0 0 24 30">
  <defs>
    <style>
      .cls-1 {
        fill: #8c81f7;
      }
    </style>
  </defs>
  <path class="cls-1" d="m9.9.01l13.5,3c.17.03.32.13.43.26.11.13.17.3.17.48v22.5c0,.17-.06.34-.17.48-.11.13-.26.23-.43.26l-13.5,3c-.11.02-.22.02-.33,0-.11-.03-.21-.08-.29-.15-.09-.07-.15-.16-.2-.26-.05-.1-.07-.21-.07-.32V.75c0-.11.02-.22.07-.32.05-.1.12-.19.2-.26.09-.07.19-.12.29-.15.11-.03.22-.03.33,0Zm-2.4,2.98v24H1.12c-.27,0-.53-.1-.74-.28-.2-.18-.34-.43-.38-.69v-.15s-.01-21.75-.01-21.75c0-.27.1-.53.28-.74.18-.2.43-.34.69-.38h.15s6.38-.01,6.38-.01Zm6,10.5c-.4,0-.78.16-1.06.44-.28.28-.44.66-.44,1.06s.16.78.44,1.06c.28.28.66.44,1.06.44s.78-.16,1.06-.44c.28-.28.44-.66.44-1.06s-.16-.78-.44-1.06c-.28-.28-.66-.44-1.06-.44Z"/>
</svg>