<svg width="8" height="14" viewBox="0 0 8 14" fill="none" xmlns="http://www.w3.org/2000/svg">
<path d="M0.293 13.364C0.105529 13.1765 0.000213632 12.9222 0.000213635 12.657C0.000213638 12.3918 0.105529 12.1375 0.293 11.95L5.243 7.00001L0.293 2.05001C0.110842 1.86141 0.0100475 1.60881 0.0123259 1.34661C0.0146043 1.08441 0.119774 0.833601 0.305182 0.648193C0.49059 0.462786 0.741402 0.357617 1.0036 0.355339C1.2658 0.353061 1.5184 0.453855 1.707 0.636013L7.364 6.29301C7.55147 6.48054 7.65679 6.73485 7.65679 7.00001C7.65679 7.26518 7.55147 7.51949 7.364 7.70701L1.707 13.364C1.51947 13.5515 1.26516 13.6568 1 13.6568C0.734836 13.6568 0.480528 13.5515 0.293 13.364Z" fill="#9F5CF6"/>
</svg>
